<svg xmlns="http://www.w3.org/2000/svg" width="64" height="64">
  <path fill="#000" fill-rule="nonzero" d="M10.6 28.8l6.8 2.8c-.8 1.9-1.4 3.9-1.9 5.9l-.2 1.1 9.7 9.7 1.2-.2c2-.5 4-1.1 6-1.9L35 53l.3.2h.4l4.3-4.3a7 7 0 002-5.3L42 41c7.9-5.8 15.9-16 18-33.6.2-.9-.1-1.8-.8-2.4a3 3 0 00-2.4-.9 47.3 47.3 0 00-34 18l-2.7-.2a7 7 0 00-5.3 2L10.4 28l-.1.4c0 .2.1.3.3.4zm27.3-10.3c1.6-1.5 3.8-2 5.8-1.2a5.2 5.2 0 010 9.7c-2 .8-4.2.4-5.8-1.1a5.2 5.2 0 010-7.4zM9.3 49a7 7 0 00-3.5-.3c-.2 0-.5 0-.6-.2A.6.6 0 015 48c1.2-2.7 4.5-8 10.5-3.7l.1.2v.3A6.4 6.4 0 0013 50c0 .2.3.4.5.4 2 0 4-.8 5.3-2.4l.3-.1.2.1c.8 1 3.1 4.2.6 7.3a6.6 6.6 0 01-4.4 2.3c-2.5.3-7 1-9 3.2 0 .2-.3.2-.5.2a.6.6 0 01-.5-.5 10 10 0 013.7-11.4z"/>
</svg>
