<?xml version="1.0" encoding="UTF-8"?>
<svg width="150px" height="35px" viewBox="0 0 150 35" version="1.1" xmlns="http://www.w3.org/2000/svg" xmlns:xlink="http://www.w3.org/1999/xlink">
    <!-- Generator: Sketch 56.3 (81716) - https://sketch.com -->
    <title>logo1-dark</title>
    <desc>Created with Sketch.</desc>
    <g id="logo1-dark" stroke="none" stroke-width="1" fill="none" fill-rule="evenodd">
        <g id="np_rocket_780226_000000" transform="translate(5.000000, 3.000000)" fill="#FFFFFF" fill-rule="nonzero">
            <path d="M2.75438296,12.1632228 L6.12165335,13.5364241 C5.7418559,14.47904 5.43914404,15.4506414 5.2158106,16.441262 L5.08769934,17.0124059 L9.91512637,21.7646087 L10.4955901,21.6419013 L10.4955901,21.6407856 C11.5011856,21.422146 12.4886706,21.1243002 13.446668,20.7506007 L14.8422771,24.0638065 L14.843411,24.0626911 C14.8706203,24.1296234 14.930707,24.1787047 15.002133,24.1920894 C15.074691,24.2054756 15.1483838,24.1831653 15.1994007,24.1318509 L17.3092415,22.0558856 L17.3103754,22.0558856 C18.0064676,21.3709698 18.374946,20.4272402 18.326187,19.4600936 L18.2502275,18.12593 C22.157039,15.286945 26.1091267,10.3095401 27.1861772,1.62301242 C27.2485306,1.18126117 27.0977464,0.736168721 26.7780531,0.420497484 C26.4583337,0.10479769 26.0071392,-0.0457844011 25.5581795,0.0122152626 C16.7322277,1.0797689 11.670003,4.97288566 8.78596875,8.80469013 L7.4334301,8.73664404 C6.45163366,8.68421589 5.49363623,9.04117798 4.79528026,9.72163883 L2.68543953,11.7976041 C2.62535283,11.847802 2.59814359,11.9247722 2.61174675,12.0006287 C2.62648502,12.0764823 2.68090321,12.1378374 2.75459599,12.1634932 L2.75438296,12.1632228 Z M16.2910886,7.10203104 C17.0393354,6.36913918 18.1617202,6.15161902 19.1367252,6.54984911 C20.1117302,6.9480792 20.7466124,7.88401272 20.7466124,8.92255224 C20.7466124,9.9622055 20.1117302,10.898139 19.1367252,11.2963691 C18.1617202,11.6945992 17.0393354,11.4770819 16.2910886,10.7430734 C15.7990584,10.2611708 15.5224384,9.60635428 15.5224384,8.92255224 C15.5224384,8.23986393 15.7990671,7.58504744 16.2910886,7.10203104 Z M2.12516022,22.143677 C1.56623165,21.9506931 0.966496468,21.9038422 0.383768878,22.0064682 C0.278333437,22.0287785 0.168361672,21.9964286 0.0935369879,21.9205739 C-0.000561995582,21.8291023 -0.0266364286,21.6885467 0.0289139552,21.5691776 C0.647920531,20.2618006 2.28726634,17.6314259 5.25657076,19.7564525 C5.28831633,19.7843403 5.30532101,19.8233848 5.30532101,19.8646586 C5.30532101,19.9059323 5.28831517,19.9460923 5.25657076,19.9728646 C4.45050973,20.5975533 3.99472957,21.5624724 4.02874475,22.5720263 C4.03327962,22.6936171 4.13191348,22.7906659 4.25548842,22.7951294 C5.27582765,22.8352865 6.25649218,22.3968993 6.89593108,21.6126902 C6.92427397,21.5781103 6.96622235,21.5591454 7.01043627,21.5591454 C7.055785,21.5591454 7.09773222,21.5781091 7.12607627,21.6126902 C7.53875699,22.0957066 8.6724608,23.671921 7.41630816,25.1934769 C6.86759574,25.8426962 6.08077709,26.2532059 5.22708901,26.3357647 C4.00834725,26.4640493 1.7567863,26.8555913 0.83617074,27.8896759 C0.761346056,27.9766869 0.642304544,28.016844 0.52893126,27.9934185 C0.414426073,27.9688773 0.3225938,27.8852125 0.290851139,27.7747789 C-0.0345278337,26.6838084 -0.539037929,24.2453952 2.12520375,22.1435856 L2.12516022,22.143677 Z" id="Shape"></path>
        </g>
        <text id="YOUR-LOGO" font-family="Lato-Semibold, Lato" font-size="18" font-weight="500" fill="#FFFFFF">
            <tspan x="38" y="24">YOUR LOGO</tspan>
        </text>
    </g>
</svg>